<svg xmlns="http://www.w3.org/2000/svg" xmlns:xlink="http://www.w3.org/1999/xlink" width="1080" zoomAndPan="magnify" viewBox="0 0 810 809.999993" height="1080" preserveAspectRatio="xMidYMid meet" version="1.0"><defs><g/><clipPath id="7f8c70d7e4"><path d="M 510 347 L 529 347 L 529 357 L 510 357 Z M 510 347 " clip-rule="nonzero"/></clipPath><clipPath id="d91f4a6e44"><path d="M 511.4375 345.242188 L 529.765625 352.695312 L 527.425781 358.445312 L 509.097656 350.992188 Z M 511.4375 345.242188 " clip-rule="nonzero"/></clipPath><clipPath id="4abba50a5c"><path d="M 520.601562 348.96875 C 515.554688 346.914062 510.9375 346.535156 510.289062 348.125 C 509.644531 349.710938 513.214844 352.664062 518.265625 354.71875 C 523.3125 356.769531 527.929688 357.148438 528.578125 355.5625 C 529.222656 353.972656 525.652344 351.019531 520.601562 348.96875 Z M 520.601562 348.96875 " clip-rule="nonzero"/></clipPath><clipPath id="a539f9d0b9"><path d="M 207 349 L 227 349 L 227 358 L 207 358 Z M 207 349 " clip-rule="nonzero"/></clipPath><clipPath id="f2c26cc53c"><path d="M 206.578125 352.367188 L 225.933594 348.257812 L 227.222656 354.332031 L 207.867188 358.441406 Z M 206.578125 352.367188 " clip-rule="nonzero"/></clipPath><clipPath id="ea57a8c95d"><path d="M 216.257812 350.3125 C 210.925781 351.445312 206.890625 353.722656 207.25 355.398438 C 207.605469 357.074219 212.214844 357.515625 217.546875 356.382812 C 222.878906 355.253906 226.914062 352.976562 226.558594 351.296875 C 226.203125 349.621094 221.589844 349.179688 216.257812 350.3125 Z M 216.257812 350.3125 " clip-rule="nonzero"/></clipPath><clipPath id="9f46470647"><path d="M 220.78125 224.863281 L 517 224.863281 L 517 604.363281 L 220.78125 604.363281 Z M 220.78125 224.863281 " clip-rule="nonzero"/></clipPath><clipPath id="2237ea02e8"><path d="M 246.28125 224.863281 L 491.449219 224.863281 C 498.214844 224.863281 504.699219 227.550781 509.480469 232.332031 C 514.261719 237.113281 516.949219 243.601562 516.949219 250.363281 L 516.949219 578.835938 C 516.949219 585.597656 514.261719 592.085938 509.480469 596.867188 C 504.699219 601.648438 498.214844 604.335938 491.449219 604.335938 L 246.28125 604.335938 C 239.519531 604.335938 233.03125 601.648438 228.25 596.867188 C 223.46875 592.085938 220.78125 585.597656 220.78125 578.835938 L 220.78125 250.363281 C 220.78125 243.601562 223.46875 237.113281 228.25 232.332031 C 233.03125 227.550781 239.519531 224.863281 246.28125 224.863281 Z M 246.28125 224.863281 " clip-rule="nonzero"/></clipPath><clipPath id="365f9f545c"><path d="M 312.949219 495.601562 L 433.652344 495.601562 L 433.652344 738.601562 L 312.949219 738.601562 Z M 312.949219 495.601562 " clip-rule="nonzero"/></clipPath><clipPath id="0f8306825e"><path d="M 295.265625 534.671875 L 442.464844 534.671875 L 442.464844 703.148438 L 295.265625 703.148438 Z M 295.265625 534.671875 " clip-rule="nonzero"/></clipPath><clipPath id="44e1efff3d"><path d="M 368.867188 703.0625 L 442.464844 629.464844 L 405.667969 629.464844 L 405.667969 534.671875 L 332.066406 534.671875 L 332.066406 629.464844 L 295.265625 629.464844 Z M 368.867188 703.0625 " clip-rule="nonzero"/></clipPath><clipPath id="12f75c938e"><path d="M 206.601562 353.851562 L 528.863281 353.851562 L 528.863281 475.351562 L 206.601562 475.351562 Z M 206.601562 353.851562 " clip-rule="nonzero"/></clipPath><clipPath id="87e78a0e92"><path d="M 208.101562 353.851562 L 527.199219 353.851562 C 528.027344 353.851562 528.699219 354.523438 528.699219 355.351562 L 528.699219 473.851562 C 528.699219 474.679688 528.027344 475.351562 527.199219 475.351562 L 208.101562 475.351562 C 207.273438 475.351562 206.601562 474.679688 206.601562 473.851562 L 206.601562 355.351562 C 206.601562 354.523438 207.273438 353.851562 208.101562 353.851562 Z M 208.101562 353.851562 " clip-rule="nonzero"/></clipPath></defs><g clip-path="url(#7f8c70d7e4)"><g clip-path="url(#d91f4a6e44)"><g clip-path="url(#4abba50a5c)"><path fill="#3e5890" d="M 511.460938 345.25 L 529.742188 352.683594 L 527.40625 358.433594 L 509.121094 351 Z M 511.460938 345.25 " fill-opacity="1" fill-rule="nonzero"/></g></g></g><g clip-path="url(#a539f9d0b9)"><g clip-path="url(#f2c26cc53c)"><g clip-path="url(#ea57a8c95d)"><path fill="#3e5890" d="M 206.605469 352.363281 L 225.910156 348.261719 L 227.199219 354.335938 L 207.894531 358.433594 Z M 206.605469 352.363281 " fill-opacity="1" fill-rule="nonzero"/></g></g></g><g clip-path="url(#9f46470647)"><g clip-path="url(#2237ea02e8)"><path stroke-linecap="butt" transform="matrix(0.75, 0, 0, 0.75, 220.782268, 224.864409)" fill="none" stroke-linejoin="miter" d="M 33.998644 -0.00150325 L 360.889285 -0.00150325 C 369.910119 -0.00150325 378.555953 3.58183 384.930953 9.956831 C 391.305953 16.331831 394.889287 24.982873 394.889287 33.998498 L 394.889287 471.962062 C 394.889287 480.977688 391.305953 489.62873 384.930953 496.00373 C 378.555953 502.37873 369.910119 505.962064 360.889285 505.962064 L 33.998644 505.962064 C 24.983018 505.962064 16.331976 502.37873 9.956976 496.00373 C 3.581976 489.62873 -0.00135786 480.977688 -0.00135786 471.962062 L -0.00135786 33.998498 C -0.00135786 24.982873 3.581976 16.331831 9.956976 9.956831 C 16.331976 3.58183 24.983018 -0.00150325 33.998644 -0.00150325 Z M 33.998644 -0.00150325 " stroke="#2f426c" stroke-width="20" stroke-opacity="1" stroke-miterlimit="4"/></g></g><g clip-path="url(#365f9f545c)"><path fill="#ffffff" d="M 312.949219 495.601562 L 433.652344 495.601562 L 433.652344 738.417969 L 312.949219 738.417969 Z M 312.949219 495.601562 " fill-opacity="1" fill-rule="nonzero"/></g><g clip-path="url(#0f8306825e)"><g clip-path="url(#44e1efff3d)"><path fill="#2f426c" d="M 442.464844 534.671875 L 442.464844 703.148438 L 295.265625 703.148438 L 295.265625 534.671875 Z M 442.464844 534.671875 " fill-opacity="1" fill-rule="nonzero"/></g></g><g clip-path="url(#12f75c938e)"><g clip-path="url(#87e78a0e92)"><path fill="#2f426c" d="M 206.601562 353.851562 L 528.863281 353.851562 L 528.863281 475.351562 L 206.601562 475.351562 Z M 206.601562 353.851562 " fill-opacity="1" fill-rule="nonzero"/></g></g><path stroke-linecap="butt" transform="matrix(0.75, 0, 0, 0.75, 259.445616, 271.82901)" fill="none" stroke-linejoin="miter" d="M -0.00040473 1.99882 L 291.796485 1.99882 " stroke="#2f426c" stroke-width="4" stroke-opacity="1" stroke-miterlimit="4"/><path stroke-linecap="butt" transform="matrix(0.75, 0, 0, 0.75, 259.445616, 301.992427)" fill="none" stroke-linejoin="miter" d="M -0.00040473 1.99968 L 291.796485 1.99968 " stroke="#2f426c" stroke-width="4" stroke-opacity="1" stroke-miterlimit="4"/><path stroke-linecap="butt" transform="matrix(0.75, 0, 0, 0.75, 258.22704, 328.050911)" fill="none" stroke-linejoin="miter" d="M -0.000636812 1.999828 L 291.796253 1.999828 " stroke="#2f426c" stroke-width="4" stroke-opacity="1" stroke-miterlimit="4"/><path stroke-linecap="butt" transform="matrix(0.75, 0, 0, 0.75, 253.72297, 340.725003)" fill="none" stroke-linejoin="miter" d="M 22.10375 152.002087 L 1.72354 152.002087 L 31.536042 100.220835 L 3.166249 51.335415 L 24.306875 51.335415 L 45.166251 87.418751 L 46.890209 87.418751 L 68.093335 51.335415 L 88.197503 51.335415 L 59.832918 100.220835 L 89.64542 152.002087 L 68.57771 152.002087 L 46.197501 113.168752 L 44.478751 113.168752 Z M 154.09334 51.335415 L 154.09334 135.33542 L 199.332925 135.33542 L 199.332925 152.002087 L 134.197505 152.002087 L 134.197505 51.335415 Z M 276.999596 153.444796 C 270.020429 153.444796 263.817303 152.585421 258.374595 150.861462 C 252.937094 149.142712 248.400636 146.882295 244.775636 144.080212 C 241.150636 141.283337 238.374594 138.205211 236.44751 134.856253 L 247.395428 121.496877 L 249.114178 121.496877 C 252.145428 125.996878 255.989178 129.575003 260.645428 132.24167 C 265.306887 134.903128 270.754804 136.231253 276.999596 136.231253 C 282.322513 136.231253 286.343346 135.106253 289.05168 132.861461 C 291.754805 130.611461 293.108971 127.512503 293.108971 123.564586 C 293.108971 121.179169 292.67668 119.179169 291.80168 117.575002 C 290.931888 115.965627 289.483971 114.590627 287.463138 113.444794 C 285.447513 112.293752 282.713138 111.309377 279.270429 110.481252 L 266.32772 107.522918 C 257.286053 105.45521 250.551678 102.022918 246.119386 97.226043 C 241.692302 92.429168 239.473552 86.200001 239.473552 78.533333 C 239.473552 72.840625 240.900636 67.840625 243.744386 63.522916 C 246.588136 59.210416 250.733969 55.861457 256.17147 53.470832 C 261.60897 51.085415 268.119387 49.892707 275.692304 49.892707 C 283.447513 49.892707 290.093346 50.91354 295.624597 52.955207 C 301.155847 54.996874 305.827722 58.132291 309.635014 62.356249 L 299.791264 75.851042 L 298.067305 75.851042 C 295.223555 72.866667 291.963138 70.627083 288.291263 69.1375 C 284.619388 67.642708 280.421471 66.897916 275.692304 66.897916 C 270.228762 66.897916 266.07772 67.861458 263.228762 69.788541 C 260.385012 71.715625 258.963136 74.382292 258.963136 77.778125 C 258.963136 80.944792 259.957928 83.470834 261.957928 85.351042 C 263.95272 87.231251 267.405845 88.700001 272.317304 89.757292 L 285.536054 92.512501 C 295.317305 94.575001 302.405847 98.075001 306.812097 103.012501 C 311.218347 107.944793 313.421473 114.382294 313.421473 122.325002 C 313.421473 128.611461 312.067306 134.08542 309.358972 138.746878 C 306.650639 143.403128 302.567305 147.017712 297.103763 149.590629 C 291.640221 152.158337 284.942304 153.444796 276.999596 153.444796 Z M 276.999596 153.444796 " stroke="#000000" stroke-width="5.64048" stroke-opacity="1" stroke-miterlimit="4"/><g fill="#ffffff" fill-opacity="1"><g transform="translate(253.72297, 454.724997)"><g><path d="M 16.578125 0 L 1.296875 0 L 23.65625 -38.828125 L 2.375 -75.484375 L 18.234375 -75.484375 L 33.875 -48.4375 L 35.15625 -48.4375 L 51.0625 -75.484375 L 66.140625 -75.484375 L 44.875 -38.828125 L 67.234375 0 L 51.421875 0 L 34.640625 -29.125 L 33.359375 -29.125 Z M 16.578125 0 "/></g></g></g><g fill="#ffffff" fill-opacity="1"><g transform="translate(344.558744, 454.724997)"><g><path d="M 24.734375 -75.484375 L 24.734375 -12.5 L 58.65625 -12.5 L 58.65625 0 L 9.8125 0 L 9.8125 -75.484375 Z M 24.734375 -75.484375 "/></g></g></g><g fill="#ffffff" fill-opacity="1"><g transform="translate(428.010608, 454.724997)"><g><path d="M 33.453125 1.078125 C 28.222656 1.078125 23.566406 0.4375 19.484375 -0.84375 C 15.410156 -2.132812 12.015625 -3.832031 9.296875 -5.9375 C 6.578125 -8.039062 4.492188 -10.347656 3.046875 -12.859375 L 11.25 -22.875 L 12.546875 -22.875 C 14.816406 -19.5 17.695312 -16.8125 21.1875 -14.8125 C 24.6875 -12.820312 28.773438 -11.828125 33.453125 -11.828125 C 37.453125 -11.828125 40.46875 -12.671875 42.5 -14.359375 C 44.53125 -16.046875 45.546875 -18.367188 45.546875 -21.328125 C 45.546875 -23.117188 45.21875 -24.613281 44.5625 -25.8125 C 43.90625 -27.019531 42.816406 -28.050781 41.296875 -28.90625 C 39.785156 -29.769531 37.738281 -30.515625 35.15625 -31.140625 L 25.453125 -33.359375 C 18.671875 -34.910156 13.617188 -37.484375 10.296875 -41.078125 C 6.972656 -44.671875 5.3125 -49.34375 5.3125 -55.09375 C 5.3125 -59.363281 6.378906 -63.113281 8.515625 -66.34375 C 10.648438 -69.582031 13.753906 -72.097656 17.828125 -73.890625 C 21.910156 -75.679688 26.796875 -76.578125 32.484375 -76.578125 C 38.296875 -76.578125 43.273438 -75.8125 47.421875 -74.28125 C 51.578125 -72.75 55.082031 -70.398438 57.9375 -67.234375 L 50.546875 -57.109375 L 49.265625 -57.109375 C 47.128906 -59.347656 44.679688 -61.023438 41.921875 -62.140625 C 39.171875 -63.265625 36.023438 -63.828125 32.484375 -63.828125 C 28.378906 -63.828125 25.257812 -63.101562 23.125 -61.65625 C 21 -60.207031 19.9375 -58.207031 19.9375 -55.65625 C 19.9375 -53.28125 20.679688 -51.382812 22.171875 -49.96875 C 23.671875 -48.5625 26.265625 -47.460938 29.953125 -46.671875 L 39.859375 -44.609375 C 47.191406 -43.066406 52.507812 -40.441406 55.8125 -36.734375 C 59.125 -33.035156 60.78125 -28.207031 60.78125 -22.25 C 60.78125 -17.539062 59.765625 -13.4375 57.734375 -9.9375 C 55.703125 -6.445312 52.632812 -3.738281 48.53125 -1.8125 C 44.4375 0.113281 39.410156 1.078125 33.453125 1.078125 Z M 33.453125 1.078125 "/></g></g></g></svg>